<?xml version="1.0" encoding="UTF-8" standalone="no"?>
<!DOCTYPE svg PUBLIC "-//W3C//DTD SVG 1.1//EN"
 "http://www.w3.org/Graphics/SVG/1.1/DTD/svg11.dtd">
<!-- Generated by graphviz version 2.43.0 (0)
 -->
<!-- Title: Dependencies Pages: 1 -->
<svg width="364pt" height="283pt"
 viewBox="0.00 0.00 364.00 283.00" xmlns="http://www.w3.org/2000/svg" xmlns:xlink="http://www.w3.org/1999/xlink">
<g id="graph0" class="graph" transform="scale(1 1) rotate(0) translate(4 279)">
<title>Dependencies</title>
<polygon fill="white" stroke="transparent" points="-4,4 -4,-279 360,-279 360,4 -4,4"/>
<text text-anchor="middle" x="178" y="-7.8" font-family="Times,serif" font-size="14.00">Dependències entre mòduls. Verd: a completar per l&#39;estudiant.</text>
<!-- Main -->
<g id="node1" class="node">
<title>Main</title>
<ellipse fill="yellow" stroke="black" cx="223.47" cy="-257" rx="29.8" ry="18"/>
<text text-anchor="middle" x="223.47" y="-253.3" font-family="Times,serif" font-size="14.00">Main</text>
</g>
<!-- Handler -->
<g id="node2" class="node">
<title>Handler</title>
<ellipse fill="#00ff00" stroke="black" cx="223.47" cy="-113" rx="38.99" ry="18"/>
<text text-anchor="middle" x="223.47" y="-109.3" font-family="Times,serif" font-size="14.00">Handler</text>
</g>
<!-- Main&#45;&gt;Handler -->
<g id="edge1" class="edge">
<title>Main&#45;&gt;Handler</title>
<path fill="none" stroke="black" d="M223.47,-238.87C223.47,-214.67 223.47,-170.21 223.47,-141.39"/>
<polygon fill="black" stroke="black" points="226.98,-141.19 223.47,-131.19 219.98,-141.19 226.98,-141.19"/>
</g>
<!-- CalcApp -->
<g id="node3" class="node">
<title>CalcApp</title>
<ellipse fill="yellow" stroke="black" cx="138.47" cy="-185" rx="42.49" ry="18"/>
<text text-anchor="middle" x="138.47" y="-181.3" font-family="Times,serif" font-size="14.00">CalcApp</text>
</g>
<!-- Main&#45;&gt;CalcApp -->
<g id="edge2" class="edge">
<title>Main&#45;&gt;CalcApp</title>
<path fill="none" stroke="black" d="M206.27,-241.83C194.46,-232.11 178.55,-219.01 165.12,-207.94"/>
<polygon fill="black" stroke="black" points="167.07,-205.01 157.13,-201.36 162.62,-210.42 167.07,-205.01"/>
</g>
<!-- Wai -->
<g id="node4" class="node">
<title>Wai</title>
<ellipse fill="#c0c0c0" stroke="black" cx="256.47" cy="-41" rx="59.59" ry="18"/>
<text text-anchor="middle" x="256.47" y="-37.3" font-family="Times,serif" font-size="14.00">WAI modules</text>
</g>
<!-- Main&#45;&gt;Wai -->
<g id="edge3" class="edge">
<title>Main&#45;&gt;Wai</title>
<path fill="none" stroke="black" d="M232.03,-239.59C243.67,-216.23 263.93,-171.69 271.47,-131 275.34,-110.14 270.92,-86.44 265.9,-68.75"/>
<polygon fill="black" stroke="black" points="269.21,-67.62 262.93,-59.09 262.52,-69.68 269.21,-67.62"/>
</g>
<!-- Handler&#45;&gt;Wai -->
<g id="edge7" class="edge">
<title>Handler&#45;&gt;Wai</title>
<path fill="none" stroke="black" d="M231.46,-95.05C235.22,-87.09 239.78,-77.41 243.98,-68.51"/>
<polygon fill="black" stroke="black" points="247.23,-69.81 248.33,-59.28 240.9,-66.83 247.23,-69.81"/>
</g>
<!-- Html -->
<g id="node6" class="node">
<title>Html</title>
<ellipse fill="#c0c0c0" stroke="black" cx="101.47" cy="-41" rx="61.99" ry="18"/>
<text text-anchor="middle" x="101.47" y="-37.3" font-family="Times,serif" font-size="14.00">Html modules</text>
</g>
<!-- Handler&#45;&gt;Html -->
<g id="edge8" class="edge">
<title>Handler&#45;&gt;Html</title>
<path fill="none" stroke="black" d="M199.95,-98.5C182.18,-88.31 157.47,-74.13 137.26,-62.53"/>
<polygon fill="black" stroke="black" points="138.74,-59.35 128.32,-57.41 135.26,-65.42 138.74,-59.35"/>
</g>
<!-- CalcApp&#45;&gt;Handler -->
<g id="edge5" class="edge">
<title>CalcApp&#45;&gt;Handler</title>
<path fill="none" stroke="black" d="M157.34,-168.46C169.05,-158.82 184.28,-146.28 197.17,-135.66"/>
<polygon fill="black" stroke="black" points="199.75,-138.07 205.25,-129.01 195.3,-132.67 199.75,-138.07"/>
</g>
<!-- CalcInstr -->
<g id="node5" class="node">
<title>CalcInstr</title>
<ellipse fill="yellow" stroke="black" cx="123.47" cy="-113" rx="42.79" ry="18"/>
<text text-anchor="middle" x="123.47" y="-109.3" font-family="Times,serif" font-size="14.00">CalcInstr</text>
</g>
<!-- CalcApp&#45;&gt;CalcInstr -->
<g id="edge4" class="edge">
<title>CalcApp&#45;&gt;CalcInstr</title>
<path fill="none" stroke="black" d="M134.84,-167.05C133.17,-159.26 131.15,-149.82 129.28,-141.08"/>
<polygon fill="black" stroke="black" points="132.69,-140.32 127.18,-131.28 125.85,-141.79 132.69,-140.32"/>
</g>
<!-- CalcApp&#45;&gt;Html -->
<g id="edge6" class="edge">
<title>CalcApp&#45;&gt;Html</title>
<path fill="none" stroke="black" d="M111.86,-170.73C97.02,-161.75 79.87,-148.35 71.47,-131 61.55,-110.5 71.39,-85.88 82.37,-67.74"/>
<polygon fill="black" stroke="black" points="85.6,-69.19 88.12,-58.9 79.74,-65.37 85.6,-69.19"/>
</g>
</g>
</svg>
